<svg viewBox="0 0 48 48" fill="none" xmlns="http://www.w3.org/2000/svg" stroke="#ffffff"><g id="SVGRepo_bgCarrier" stroke-width="0"></g><g id="SVGRepo_tracerCarrier" stroke-linecap="round" stroke-linejoin="round" stroke="#CCCCCC" stroke-width="2.496"></g><g id="SVGRepo_iconCarrier"> <rect width="48" height="48" fill="white" fill-opacity="0.01"></rect> <path d="M22 8V20C22 22.2091 17.9706 24 13 24C8.02944 24 4 22.2091 4 20V8" stroke="#FFBC5E" stroke-width="4" stroke-linecap="round" stroke-linejoin="round"></path> <path d="M22 14C22 16.2091 17.9706 18 13 18C8.02944 18 4 16.2091 4 14" stroke="#FFBC5E" stroke-width="4" stroke-linecap="round" stroke-linejoin="round"></path> <path d="M22 8C22 10.2091 17.9706 12 13 12C8.02944 12 4 10.2091 4 8C4 5.79086 8.02944 4 13 4C17.9706 4 22 5.79086 22 8Z" fill="#434a51" stroke="#FFBC5E" stroke-width="4" stroke-linecap="round" stroke-linejoin="round"></path> <path d="M32 6H38C40.2091 6 42 7.79086 42 10V16" stroke="#FFBC5E" stroke-width="4" stroke-linecap="round" stroke-linejoin="round"></path> <path d="M16 42H10C7.79086 42 6 40.2091 6 38V32" stroke="#FFBC5E" stroke-width="4" stroke-linecap="round" stroke-linejoin="round"></path> <path d="M35 38V44" stroke="#FFBC5E" stroke-width="4" stroke-linecap="round" stroke-linejoin="round"></path> <path d="M41 44H35H29" stroke="#FFBC5E" stroke-width="4" stroke-linecap="round" stroke-linejoin="round"></path> <path d="M44 38V26H26V38H44Z" fill="#434a51" stroke="#FFBC5E" stroke-width="4" stroke-linecap="round" stroke-linejoin="round"></path> </g></svg>